<svg xmlns="http://www.w3.org/2000/svg" viewBox="0 0 717.24 176.75"><defs><style>.cls-1,.cls-3{opacity:0.8;}.cls-2,.cls-3{fill:#fff;}</style></defs><title>Element 11</title><g id="Ebene_2" data-name="Ebene 2"><g id="Logos"><g class="cls-1"><path class="cls-2" d="M242,105.58a11.16,11.16,0,0,0,4.35-.6,2.32,2.32,0,0,0,1.27-2.33,2.85,2.85,0,0,0-1.65-2.36,31.68,31.68,0,0,0-5-2.29q-2.62-1-4.77-2a14.16,14.16,0,0,1-3.63-2.51A10.23,10.23,0,0,1,230.19,90a12.94,12.94,0,0,1-.82-4.88,10.53,10.53,0,0,1,4.12-8.77q4.13-3.22,11.33-3.23a36.73,36.73,0,0,1,6.9.64A32.59,32.59,0,0,1,257,75.13l-2,8.7a41.44,41.44,0,0,0-4.24-1.2,23.07,23.07,0,0,0-5.14-.53q-5.25,0-5.25,2.93a3,3,0,0,0,.23,1.2,2.52,2.52,0,0,0,.9,1,12.61,12.61,0,0,0,1.83,1.06c.78.37,1.77.79,3,1.24a46.05,46.05,0,0,1,6.07,2.69,14.59,14.59,0,0,1,3.79,2.85,9,9,0,0,1,1.95,3.41,15.29,15.29,0,0,1,.56,4.34,10,10,0,0,1-4.38,8.83q-4.4,3-12.42,3a34.94,34.94,0,0,1-13.57-2.4l1.87-9.07a36.14,36.14,0,0,0,5.85,1.76A28.16,28.16,0,0,0,242,105.58Z"/><path class="cls-2" d="M300.32,112.25a61.23,61.23,0,0,1-7.35,1.54,59.8,59.8,0,0,1-9.45.71,22.5,22.5,0,0,1-8.37-1.35,12.73,12.73,0,0,1-5.28-3.78,14.86,14.86,0,0,1-2.78-5.82,31.23,31.23,0,0,1-.82-7.42v-22h11.17V94.78q0,5.4,1.43,7.8t5.32,2.4c.8,0,1.65,0,2.55-.11s1.7-.17,2.4-.27V74.15h11.18Z"/><path class="cls-2" d="M334.22,84.05c-1-.25-2.18-.51-3.53-.78a21.41,21.41,0,0,0-4.35-.42,21.15,21.15,0,0,0-2.51.19,15.07,15.07,0,0,0-2.21.41V113.6H310.44V76.25a65.8,65.8,0,0,1,7.09-2,40.49,40.49,0,0,1,9.11-.94c.6,0,1.33,0,2.18.11s1.7.18,2.55.3,1.69.28,2.55.45a12.34,12.34,0,0,1,2.17.64Z"/><path class="cls-2" d="M358.82,55.4a24.68,24.68,0,0,1,5.77.64,28.59,28.59,0,0,1,4.05,1.24l-2.17,8.92a15,15,0,0,0-3.27-1,17.8,17.8,0,0,0-3.26-.34,9,9,0,0,0-3.41.57A5.23,5.23,0,0,0,354.35,67a6,6,0,0,0-1.12,2.33,11.75,11.75,0,0,0-.34,2.92v2h13.8v9.3h-13.8V113.6H341.72V72.05q0-7.65,4.31-12.15T358.82,55.4Z"/><path class="cls-2" d="M406.44,108.65q0,9.67-4.91,14.37t-15.19,4.68a41.69,41.69,0,0,1-7.2-.63,45.41,45.41,0,0,1-6.67-1.69l1.95-9.38a30.94,30.94,0,0,0,12.07,2.25q4.8,0,6.79-2.1a7.56,7.56,0,0,0,2-5.4v-1.42a18.26,18.26,0,0,1-3.72,1.24,20,20,0,0,1-4.16.41q-8.17,0-12.52-4.84T370.52,92.6a22.18,22.18,0,0,1,1.35-7.91,16.92,16.92,0,0,1,3.93-6.11,17.7,17.7,0,0,1,6.34-3.94,24.44,24.44,0,0,1,8.48-1.39c1.35,0,2.73.07,4.16.19s2.84.29,4.24.49,2.73.44,4,.71,2.41.56,3.41.86ZM381.92,92.6q0,9.38,7.57,9.38a11.21,11.21,0,0,0,3.23-.45,12.48,12.48,0,0,0,2.55-1V82.63c-.55-.1-1.2-.19-1.95-.26a25.2,25.2,0,0,0-2.63-.12q-4.43,0-6.6,2.93A12.09,12.09,0,0,0,381.92,92.6Z"/><path class="cls-2" d="M440.34,84.05c-1-.25-2.17-.51-3.53-.78A20.08,20.08,0,0,0,430,83a15.63,15.63,0,0,0-2.21.41V113.6H416.56V76.25a66.46,66.46,0,0,1,7.09-2,40.58,40.58,0,0,1,9.12-.94c.59,0,1.32,0,2.17.11s1.7.18,2.55.3,1.7.28,2.55.45a12.73,12.73,0,0,1,2.18.64Z"/><path class="cls-2" d="M445.22,94.18A24.06,24.06,0,0,1,446.83,85a19.51,19.51,0,0,1,4.24-6.56,17.56,17.56,0,0,1,6-4,19,19,0,0,1,7-1.35q8.38,0,13.27,5.14t4.88,15.11c0,.65,0,1.37-.08,2.14s-.1,1.46-.15,2.06H456.69a7.44,7.44,0,0,0,3.23,5.48,12.92,12.92,0,0,0,7.65,2,31.84,31.84,0,0,0,6-.56,22.43,22.43,0,0,0,4.84-1.39l1.5,9.08a15.43,15.43,0,0,1-2.4.9,32.39,32.39,0,0,1-3.34.79c-1.22.22-2.54.41-3.93.56a39.67,39.67,0,0,1-4.2.22,24.92,24.92,0,0,1-9.27-1.57,18.08,18.08,0,0,1-6.52-4.31,17.17,17.17,0,0,1-3.83-6.49A25.84,25.84,0,0,1,445.22,94.18Zm26.25-4.28a11.75,11.75,0,0,0-.49-2.77,6.94,6.94,0,0,0-1.28-2.4A6.78,6.78,0,0,0,467.53,83a7.12,7.12,0,0,0-3.26-.67A7.45,7.45,0,0,0,461,83a6.58,6.58,0,0,0-2.25,1.68,7.71,7.71,0,0,0-1.39,2.44,16.53,16.53,0,0,0-.71,2.81Z"/><path class="cls-2" d="M488.64,94.18A24.25,24.25,0,0,1,490.25,85a19.82,19.82,0,0,1,4.24-6.56,17.6,17.6,0,0,1,6-4,18.87,18.87,0,0,1,7-1.35q8.4,0,13.27,5.14t4.88,15.11c0,.65,0,1.37-.07,2.14s-.11,1.46-.15,2.06H500.12a7.4,7.4,0,0,0,3.22,5.48,13,13,0,0,0,7.65,2,31.94,31.94,0,0,0,6-.56,22.77,22.77,0,0,0,4.84-1.39l1.5,9.08a15.43,15.43,0,0,1-2.4.9,33.68,33.68,0,0,1-3.34.79c-1.23.22-2.54.41-3.94.56a39.39,39.39,0,0,1-4.2.22,24.83,24.83,0,0,1-9.26-1.57,18.12,18.12,0,0,1-6.53-4.31,17.15,17.15,0,0,1-3.82-6.49A25.56,25.56,0,0,1,488.64,94.18Zm26.25-4.28a11.26,11.26,0,0,0-.49-2.77,6.92,6.92,0,0,0-1.27-2.4A6.82,6.82,0,0,0,511,83a7.06,7.06,0,0,0-3.26-.67,7.4,7.4,0,0,0-3.22.64,6.4,6.4,0,0,0-2.25,1.68,7.53,7.53,0,0,0-1.39,2.44,15.64,15.64,0,0,0-.71,2.81Z"/><path class="cls-2" d="M533.94,75.5A61.47,61.47,0,0,1,541.29,74a59.78,59.78,0,0,1,9.45-.72,22.87,22.87,0,0,1,8.36,1.32,12.49,12.49,0,0,1,5.29,3.71,14.61,14.61,0,0,1,2.78,5.7,30.84,30.84,0,0,1,.82,7.35V113.6H556.81V92.68q0-5.4-1.42-7.65t-5.33-2.25c-.79,0-1.64,0-2.54.11s-1.71.16-2.41.26V113.6H533.94Z"/><path class="cls-2" d="M588.69,107.68a6.27,6.27,0,0,1-2.14,5.14,7.52,7.52,0,0,1-9.67,0,7.24,7.24,0,0,1,0-10.28,7.52,7.52,0,0,1,9.67,0A6.27,6.27,0,0,1,588.69,107.68Z"/><path class="cls-2" d="M628.36,112.33c-1,.3-2.15.59-3.45.86s-2.66.51-4.08.71-2.88.37-4.35.49-2.89.19-4.24.19a24.8,24.8,0,0,1-8.7-1.43,17.53,17.53,0,0,1-6.45-4.08,17.75,17.75,0,0,1-4-6.45,24.56,24.56,0,0,1-1.39-8.52,29.15,29.15,0,0,1,1.2-8.66,18.88,18.88,0,0,1,3.45-6.56,14.81,14.81,0,0,1,5.51-4.13,18.49,18.49,0,0,1,7.46-1.42,17.65,17.65,0,0,1,4.17.45,22.63,22.63,0,0,1,3.71,1.27V57.2l11.17-1.8ZM603.09,93.58a13.67,13.67,0,0,0,2.32,8.32,8,8,0,0,0,6.9,3.15c1,0,1.93,0,2.78-.11s1.55-.16,2.1-.26V84.35a9.67,9.67,0,0,0-2.74-1.12,13.14,13.14,0,0,0-3.41-.45Q603.09,82.78,603.09,93.58Z"/><path class="cls-2" d="M636.61,94.18A24.06,24.06,0,0,1,638.23,85a19.64,19.64,0,0,1,4.23-6.56,17.7,17.7,0,0,1,6-4,18.87,18.87,0,0,1,7-1.35q8.4,0,13.28,5.14t4.87,15.11c0,.65,0,1.37-.07,2.14s-.1,1.46-.15,2.06H648.09a7.43,7.43,0,0,0,3.22,5.48,13,13,0,0,0,7.65,2,31.94,31.94,0,0,0,6-.56,22.43,22.43,0,0,0,4.84-1.39l1.5,9.08a15.43,15.43,0,0,1-2.4.9,33,33,0,0,1-3.34.79c-1.23.22-2.54.41-3.94.56a39.39,39.39,0,0,1-4.2.22,24.87,24.87,0,0,1-9.26-1.57,18.08,18.08,0,0,1-6.52-4.31,17.17,17.17,0,0,1-3.83-6.49A25.84,25.84,0,0,1,636.61,94.18Zm26.25-4.28a11.73,11.73,0,0,0-.48-2.77,7.11,7.11,0,0,0-1.28-2.4A6.89,6.89,0,0,0,658.93,83a7.13,7.13,0,0,0-3.27-.67,7.4,7.4,0,0,0-3.22.64,6.58,6.58,0,0,0-2.25,1.68,7.71,7.71,0,0,0-1.39,2.44,16.53,16.53,0,0,0-.71,2.81Z"/><path class="cls-2" d="M692.69,113.6q-3.84-7.5-7.79-17.55t-7.49-21.9h11.85c.5,1.95,1.09,4.07,1.77,6.34s1.38,4.58,2.11,6.9,1.46,4.59,2.19,6.79,1.44,4.2,2.15,6q1-2.7,2.1-6c.75-2.2,1.5-4.46,2.22-6.79s1.43-4.62,2.11-6.9,1.27-4.39,1.77-6.34h11.56Q713.7,86,709.75,96.05T702,113.6Z"/></g><path class="cls-3" d="M154.47,29.78l-.88.78h0l.86-.8-.91-1.07,0,0A88.32,88.32,0,0,0,3.17,64.9,69.51,69.51,0,0,0,.35,80.53C.12,83.18,0,85.82,0,88.38a88.38,88.38,0,1,0,154.47-58.6ZM88.38,8a80.43,80.43,0,0,1,60,27A57,57,0,0,1,105,129c-.63,0-1.25,0-1.88-.05h-.17a31.94,31.94,0,1,1,23.37-55.13c1,.94,2.93,3.22,3.92,4.43l.57.71L137.46,76l-.13-.9a68.4,68.4,0,0,0-19.49-38.9A69.27,69.27,0,0,0,46.39,19.93,80.33,80.33,0,0,1,88.38,8Zm-24.16,89v1.32h0a39.49,39.49,0,0,0,5.13,18.1,57,57,0,0,1-4.23-85.24,57.88,57.88,0,0,1,8.62-6.91,60.83,60.83,0,0,1,38.39,17.61,60.06,60.06,0,0,1,13.93,21.54,39.64,39.64,0,0,0-21.76-6.4A40.24,40.24,0,0,0,64.25,95.65h0ZM8.35,81.41A80.23,80.23,0,0,1,10.9,67.15,60.69,60.69,0,0,1,60.26,24.78l-.74.7A65.06,65.06,0,0,0,101,136.9,61,61,0,0,1,26,128.05,61,61,0,0,1,8.35,81.41Zm80,87.3a80.7,80.7,0,0,1-62.67-30.14,68.92,68.92,0,0,0,89.47-2.33,65.16,65.16,0,0,0,53.47-50.91c0,1,.06,2,.06,3A80.43,80.43,0,0,1,88.38,168.71Z"/></g></g></svg>
