<svg xmlns="http://www.w3.org/2000/svg" width="680.07" height="144.515" viewBox="0 0 680.07 144.515">
  <g id="Ebene_2" data-name="Ebene 2" transform="translate(0 0.035)">
    <g id="Logos">
      <path id="Path_232" data-name="Path 232" d="M204.8,92.09a11.16,11.16,0,0,0,4.35-.6,2.32,2.32,0,0,0,1.27-2.33,2.85,2.85,0,0,0-1.65-2.36,31.68,31.68,0,0,0-5-2.29q-2.62-1-4.77-2A14.16,14.16,0,0,1,195.35,80,10.23,10.23,0,0,1,193,76.49a12.94,12.94,0,0,1-.82-4.88,10.53,10.53,0,0,1,4.12-8.77q4.13-3.23,11.33-3.23a36.73,36.73,0,0,1,6.9.64,32.591,32.591,0,0,1,5.25,1.39l-2,8.7a41.442,41.442,0,0,0-4.24-1.2,23.07,23.07,0,0,0-5.14-.53q-5.25,0-5.25,2.93a3,3,0,0,0,.23,1.2,2.52,2.52,0,0,0,.9,1,12.249,12.249,0,0,0,1.84,1.06c.77.37,1.76.79,3,1.24a46.05,46.05,0,0,1,6.07,2.69A14.59,14.59,0,0,1,219,81.59,9,9,0,0,1,221,85a15.29,15.29,0,0,1,.56,4.34,10,10,0,0,1-4.38,8.83q-4.39,3-12.42,3a34.94,34.94,0,0,1-13.57-2.4L193,89.69a36.141,36.141,0,0,0,5.85,1.76,28.159,28.159,0,0,0,5.95.64Z"/>
      <path id="Path_233" data-name="Path 233" d="M263.15,98.76a61.233,61.233,0,0,1-7.35,1.54,59.8,59.8,0,0,1-9.45.71A22.5,22.5,0,0,1,238,99.66a12.73,12.73,0,0,1-5.28-3.78,14.86,14.86,0,0,1-2.78-5.82,31.23,31.23,0,0,1-.82-7.42v-22h11.17V81.29q0,5.4,1.43,7.8t5.32,2.4a20.566,20.566,0,0,0,2.55-.11c.9-.11,1.7-.17,2.4-.27V60.66h11.18Z"/>
      <path id="Path_234" data-name="Path 234" d="M297.05,70.56c-1-.25-2.18-.51-3.53-.78a21.41,21.41,0,0,0-4.35-.42,21.149,21.149,0,0,0-2.51.19,15.068,15.068,0,0,0-2.21.41v30.15H273.27V62.76a65.8,65.8,0,0,1,7.09-2,40.49,40.49,0,0,1,9.11-.94,16.222,16.222,0,0,1,2.18.11c.85.11,1.7.18,2.55.3s1.7.28,2.55.45a12.339,12.339,0,0,1,2.17.64Z"/>
      <path id="Path_235" data-name="Path 235" d="M321.65,41.91a24.68,24.68,0,0,1,5.77.64,28.59,28.59,0,0,1,4.05,1.24l-2.17,8.92a15,15,0,0,0-3.27-1,17.8,17.8,0,0,0-3.26-.34,9,9,0,0,0-3.41.57,5.23,5.23,0,0,0-2.18,1.53,6,6,0,0,0-1.12,2.33,11.751,11.751,0,0,0-.34,2.92v1.95h13.8V70h-13.8v30.15H304.55V58.56q0-7.65,4.31-12.15T321.65,41.91Z"/>
      <path id="Path_236" data-name="Path 236" d="M369.27,95.16q0,9.68-4.91,14.37t-15.19,4.68a41.688,41.688,0,0,1-7.2-.63,45.411,45.411,0,0,1-6.67-1.69l1.95-9.38a30.94,30.94,0,0,0,12.07,2.25q4.8,0,6.79-2.1a7.56,7.56,0,0,0,2-5.4V95.84a18.26,18.26,0,0,1-3.72,1.24,20,20,0,0,1-4.16.41q-8.18,0-12.52-4.84t-4.35-13.54a22.18,22.18,0,0,1,1.35-7.91,16.92,16.92,0,0,1,3.93-6.11A17.7,17.7,0,0,1,345,61.15a24.44,24.44,0,0,1,8.48-1.39c1.35,0,2.73.07,4.16.19s2.84.29,4.24.49,2.73.44,4,.71,2.41.56,3.41.86Zm-24.52-16q0,9.38,7.57,9.38a11.21,11.21,0,0,0,3.23-.45A12.251,12.251,0,0,0,358.1,87V69.14c-.55-.1-1.2-.19-2-.26a25.2,25.2,0,0,0-2.63-.12q-4.42,0-6.6,2.93a12.09,12.09,0,0,0-2.12,7.42Z"/>
      <path id="Path_237" data-name="Path 237" d="M403.17,70.56c-1-.25-2.17-.51-3.52-.78a20.14,20.14,0,0,0-6.87-.23,15.631,15.631,0,0,0-2.21.41v30.15H379.4V62.76a65.566,65.566,0,0,1,7.08-2,40.579,40.579,0,0,1,9.12-.94,16.156,16.156,0,0,1,2.17.11c.85.11,1.7.18,2.55.3s1.7.28,2.55.45a12.73,12.73,0,0,1,2.18.64Z"/>
      <path id="Path_238" data-name="Path 238" d="M408.05,80.69a24.059,24.059,0,0,1,1.61-9.19,19.66,19.66,0,0,1,4.24-6.56,17.661,17.661,0,0,1,6-4,19,19,0,0,1,7-1.35q8.39,0,13.27,5.14t4.88,15.11a20.238,20.238,0,0,1-.08,2.14c-.08.77-.1,1.46-.15,2.06h-25.3a7.44,7.44,0,0,0,3.23,5.48,12.94,12.94,0,0,0,7.65,2,31.84,31.84,0,0,0,6-.56,22.431,22.431,0,0,0,4.84-1.39l1.5,9.08a15.428,15.428,0,0,1-2.4.9,32.394,32.394,0,0,1-3.34.79c-1.22.22-2.54.41-3.93.56a39.669,39.669,0,0,1-4.2.22,24.92,24.92,0,0,1-9.27-1.57,18.08,18.08,0,0,1-6.52-4.31,17.17,17.17,0,0,1-3.83-6.49,25.841,25.841,0,0,1-1.2-8.06Zm26.25-4.28a11.749,11.749,0,0,0-.49-2.77,6.939,6.939,0,0,0-1.28-2.4,6.78,6.78,0,0,0-2.17-1.73,7.09,7.09,0,0,0-3.26-.67,7.45,7.45,0,0,0-3.23.64,6.58,6.58,0,0,0-2.25,1.68,7.71,7.71,0,0,0-1.39,2.44,16.533,16.533,0,0,0-.71,2.81Z"/>
      <path id="Path_239" data-name="Path 239" d="M451.47,80.69a24.251,24.251,0,0,1,1.61-9.19,19.82,19.82,0,0,1,4.24-6.56,17.6,17.6,0,0,1,6-4,18.87,18.87,0,0,1,7-1.35q8.4,0,13.28,5.14t4.87,15.11c0,.65,0,1.37-.07,2.14s-.11,1.46-.15,2.06H463a7.4,7.4,0,0,0,3.22,5.48,13,13,0,0,0,7.65,2,31.941,31.941,0,0,0,6-.56,22.771,22.771,0,0,0,4.84-1.39l1.5,9.08a15.43,15.43,0,0,1-2.4.9,33.683,33.683,0,0,1-3.34.79c-1.23.22-2.54.41-3.94.56a39.387,39.387,0,0,1-4.2.22,24.83,24.83,0,0,1-9.26-1.57,18.12,18.12,0,0,1-6.53-4.31,17.15,17.15,0,0,1-3.82-6.49,25.561,25.561,0,0,1-1.25-8.06Zm26.25-4.28a11.259,11.259,0,0,0-.49-2.77,6.92,6.92,0,0,0-1.27-2.4,6.82,6.82,0,0,0-2.18-1.73,7.06,7.06,0,0,0-3.26-.67,7.4,7.4,0,0,0-3.22.64,6.581,6.581,0,0,0-2.25,1.68,7.529,7.529,0,0,0-1.39,2.44,15.64,15.64,0,0,0-.71,2.81Z"/>
      <path id="Path_240" data-name="Path 240" d="M496.77,62a61.472,61.472,0,0,1,7.35-1.53,59.781,59.781,0,0,1,9.45-.72,22.87,22.87,0,0,1,8.36,1.32,12.49,12.49,0,0,1,5.29,3.71,14.609,14.609,0,0,1,2.78,5.7,30.843,30.843,0,0,1,.82,7.35V100.1H519.65V79.19q0-5.4-1.43-7.65c-1-1.5-2.73-2.25-5.32-2.25a20.566,20.566,0,0,0-2.55.11c-.9.11-1.7.16-2.41.26v30.45H496.77Z"/>
      <path id="Path_241" data-name="Path 241" d="M551.52,94.19a6.27,6.27,0,0,1-2.14,5.14,7.52,7.52,0,0,1-9.67,0,7.24,7.24,0,0,1,0-10.28,7.52,7.52,0,0,1,9.67,0A6.27,6.27,0,0,1,551.52,94.19Z"/>
      <path id="Path_242" data-name="Path 242" d="M591.19,98.84c-1,.3-2.15.59-3.45.86s-2.66.51-4.08.71-2.88.37-4.35.49-2.89.19-4.24.19a24.8,24.8,0,0,1-8.7-1.43,17.53,17.53,0,0,1-6.45-4.08,17.75,17.75,0,0,1-4-6.45,24.559,24.559,0,0,1-1.39-8.52,29.151,29.151,0,0,1,1.2-8.66,18.88,18.88,0,0,1,3.45-6.56,14.81,14.81,0,0,1,5.51-4.13,18.49,18.49,0,0,1,7.46-1.42,17.65,17.65,0,0,1,4.17.45A22.629,22.629,0,0,1,580,61.56V43.71l11.17-1.8ZM565.92,80.09a13.671,13.671,0,0,0,2.32,8.32,8,8,0,0,0,6.9,3.15,22.262,22.262,0,0,0,2.78-.11c.85-.11,1.55-.16,2.1-.26V70.86a9.671,9.671,0,0,0-2.74-1.12,13.14,13.14,0,0,0-3.41-.45Q565.92,69.29,565.92,80.09Z"/>
      <path id="Path_243" data-name="Path 243" d="M599.44,80.69a24.06,24.06,0,0,1,1.62-9.19,19.639,19.639,0,0,1,4.23-6.56,17.7,17.7,0,0,1,6-4,18.87,18.87,0,0,1,7-1.35q8.4,0,13.28,5.14t4.87,15.11c0,.65,0,1.37-.07,2.14s-.1,1.46-.15,2.06h-25.3a7.43,7.43,0,0,0,3.22,5.48,13,13,0,0,0,7.65,2,31.94,31.94,0,0,0,6-.56,22.43,22.43,0,0,0,4.84-1.39l1.5,9.08a15.432,15.432,0,0,1-2.4.9,33,33,0,0,1-3.34.79c-1.23.22-2.54.41-3.94.56a39.388,39.388,0,0,1-4.2.22A24.87,24.87,0,0,1,611,99.59a18.08,18.08,0,0,1-6.52-4.31,17.169,17.169,0,0,1-3.83-6.49,25.842,25.842,0,0,1-1.21-8.1Zm26.25-4.28a11.729,11.729,0,0,0-.48-2.77,7.111,7.111,0,0,0-1.28-2.4,6.89,6.89,0,0,0-2.17-1.73,7.13,7.13,0,0,0-3.27-.67,7.4,7.4,0,0,0-3.22.64A6.58,6.58,0,0,0,613,71.16a7.709,7.709,0,0,0-1.39,2.44,16.536,16.536,0,0,0-.71,2.81Z"/>
      <path id="Path_244" data-name="Path 244" d="M655.52,100.11q-3.84-7.5-7.79-17.55t-7.49-21.9h11.85c.5,2,1.1,4.07,1.77,6.34s1.38,4.58,2.11,6.9,1.46,4.59,2.19,6.79,1.44,4.2,2.15,6q1-2.7,2.1-6c.75-2.2,1.5-4.46,2.22-6.79s1.43-4.62,2.11-6.9,1.27-4.39,1.77-6.34h11.56q-3.54,11.85-7.49,21.9t-7.78,17.55Z"/>
      <path id="Path_245" data-name="Path 245" d="M134.86,36.36l-.67-1.15a72,72,0,0,0-8-10.84L124,21.9A72.16,72.16,0,0,0,2.61,53,56.07,56.07,0,0,0,.29,65.8C.1,68,0,70.11,0,72.21A72.21,72.21,0,1,0,134.86,36.36ZM72.21,10.49a61.77,61.77,0,0,1,46.05,20.69A43.19,43.19,0,0,1,85.4,102.4H83.88a23.3,23.3,0,1,1,17-40.214c.474.454,1.324,1.4,2.064,2.284l9.91-4.35a56.25,56.25,0,0,0-15.8-30.75,56.91,56.91,0,0,0-41.6-16.55,61.71,61.71,0,0,1,16.76-2.33Zm-11,13A46.39,46.39,0,0,1,97.84,47.85a34,34,0,0,0-46.7,28.07H51V82.2h.16a33.65,33.65,0,0,0,.65,4.14,43.11,43.11,0,0,1,9.37-62.87ZM10.73,66.83A61,61,0,0,1,12.67,56,46.15,46.15,0,0,1,43.9,25.12,53.72,53.72,0,0,0,75.42,112,46.277,46.277,0,0,1,10.73,66.83Zm61.48,67.09a61.75,61.75,0,0,1-35.54-11.33A56.83,56.83,0,0,0,94.4,112.13a53.73,53.73,0,0,0,38.27-27.51,61.82,61.82,0,0,1-60.46,49.3Z"/>
    </g>
  </g>
</svg>
