<svg xmlns="http://www.w3.org/2000/svg" width="393.801" height="394.059" viewBox="0 0 393.801 394.059">
  <path id="Path_247" data-name="Path 247" d="M367.731,99.206,365.9,96.07A196.323,196.323,0,0,0,344.09,66.512l-5.972-6.735a196.763,196.763,0,0,0-331,84.8,152.889,152.889,0,0,0-6.326,34.9C.273,185.481,0,191.234,0,196.96A196.9,196.9,0,1,0,367.731,99.206ZM196.9,28.665A168.432,168.432,0,0,1,322.467,85.081a117.769,117.769,0,0,1-89.6,194.2h-4.145a63.522,63.522,0,1,1,46.344-109.654c1.293,1.238,3.611,3.828,5.628,6.228l27.022-11.861a153.38,153.38,0,0,0-43.083-83.848A155.18,155.18,0,0,0,151.2,35.018a168.269,168.269,0,0,1,45.7-6.353ZM166.905,64.113a126.494,126.494,0,0,1,99.881,66.424,92.71,92.71,0,0,0-127.34,76.54h-.382V224.2h.436a91.752,91.752,0,0,0,1.772,11.289,117.551,117.551,0,0,1,25.55-171.432ZM29.258,182.291a166.332,166.332,0,0,1,5.29-29.531,125.84,125.84,0,0,1,85.157-84.2,146.482,146.482,0,0,0,85.947,236.9A126.186,126.186,0,0,1,29.258,182.29ZM196.9,365.229A168.378,168.378,0,0,1,99.99,334.335a154.962,154.962,0,0,0,157.416-28.522A146.509,146.509,0,0,0,361.76,230.8,168.568,168.568,0,0,1,196.9,365.229Z" transform="translate(0 0.035)" fill="#101010"/>
</svg>
